<svg version="1.1" xmlns="http://www.w3.org/2000/svg" width="20" height="19" viewBox="0 0 768 768">
<title></title>
<g >
</g>
<path fill="#1977f2" d="M241.605 696c289.739 0 448.261-240.103 448.261-448.259 0-6.75-0.151-13.65-0.452-20.4 30.839-22.3 57.449-49.923 78.586-81.57-28.72 12.778-59.213 21.122-90.435 24.75 32.877-19.706 57.491-50.665 69.287-87.135-30.928 18.329-64.752 31.259-100.022 38.235-23.763-25.249-55.18-41.968-89.399-47.569s-69.328 0.224-99.904 16.577c-30.573 16.354-54.909 42.323-69.245 73.895-14.333 31.571-17.869 66.986-10.058 100.768-62.624-3.142-123.89-19.411-179.825-47.75s-105.29-68.117-144.864-116.755c-20.114 34.679-26.27 75.716-17.214 114.77s32.641 73.195 65.964 95.485c-25.017-0.794-49.486-7.53-71.385-19.65v1.95c-0.023 36.393 12.559 71.671 35.606 99.836 23.047 28.166 55.136 47.482 90.814 54.662-23.174 6.343-47.497 7.268-71.085 2.701 10.067 31.299 29.655 58.676 56.029 78.304s58.219 30.538 91.090 31.197c-55.805 43.837-124.741 67.612-195.705 67.501-12.585-0.019-25.157-0.79-37.65-2.311 72.091 46.25 155.953 70.813 241.605 70.768z"></path>
</svg>
