<svg width="114" height="48" viewBox="0 0 114 48" fill="none" xmlns="http://www.w3.org/2000/svg">
<g id="GDPR compliant - GDPR Copy 4" filter="url(#filter0_d)">
<rect id="Rectangle " x="4.5" y="2.5" width="105" height="39" rx="5.5" fill="white" stroke="#F3F3F3"/>
<g id="Rectangle _2">
<path d="M4 8C4 4.68629 6.68629 2 10 2H44V42H10C6.68629 42 4 39.3137 4 36V8Z" fill="#2050E0"/>
<path d="M4 8C4 4.68629 6.68629 2 10 2H44V42H10C6.68629 42 4 39.3137 4 36V8Z" stroke="#E7E7E7"/>
</g>
<g id="Group">
<path id="Shape" d="M24 8L24.4536 9.46796H25.9216L24.734 10.3752L25.1876 11.8431L24 10.9353L22.8127 11.8431L23.2664 10.3752L22.0784 9.46796H23.5464L24 8Z" fill="#F8D12E"/>
<path id="Shape_2" d="M24 32.1569L24.4536 33.6253H25.9216L24.734 34.5323L25.1876 36L24 35.093L22.8127 36L23.2664 34.5323L22.0784 33.6253H23.5464L24 32.1569Z" fill="#F8D12E"/>
<path id="Shape_3" d="M30.0392 10.1961L30.4926 11.664H31.9608L30.773 12.5716L31.2267 14.0392L30.0392 13.1316L28.8515 14.0392L29.3052 12.5716L28.1177 11.664H29.5859L30.0392 10.1961Z" fill="#F8D12E"/>
<path id="Shape_4" d="M34.9218 26L35.3751 27.4684H36.8431L35.6555 28.3756L36.1094 29.8431L34.9218 28.9363L33.734 29.8431L34.1877 28.3756L33 27.4684H34.4681L34.9218 26Z" fill="#F8D12E"/>
<path id="Shape_5" d="M36.0785 20.0784L36.5319 21.5463H38L36.8124 22.4534L37.2659 23.9216L36.0785 23.0148L34.8909 23.9216L35.3448 22.4534L34.1569 21.5463H35.6246L36.0785 20.0784Z" fill="#F8D12E"/>
<path id="Shape_6" d="M11.9218 20.0784L12.3752 21.5463H13.8431L12.6554 22.4534L13.1093 23.9216L11.9218 23.0148L10.734 23.9216L11.1877 22.4534L10 21.5463H11.4681L11.9218 20.0784Z" fill="#F8D12E"/>
<path id="Shape_7" d="M12.9218 26L13.3752 27.4684H14.8431L13.6557 28.3756L14.109 29.8431L12.9218 28.9363L11.7341 29.8431L12.1877 28.3756L11 27.4684H12.4682L12.9218 26Z" fill="#F8D12E"/>
<path id="Shape_8" d="M34.9218 14L35.3751 15.4684H36.8431L35.6555 16.3756L36.1094 17.8431L34.9218 16.9363L33.734 17.8431L34.1877 16.3756L33 15.4684H34.4681L34.9218 14Z" fill="#F8D12E"/>
<path id="Shape_9" d="M13.4218 14L13.8752 15.4684H15.3431L14.1557 16.3756L14.609 17.8431L13.4218 16.9363L12.2341 17.8431L12.6877 16.3756L11.5 15.4684H12.9682L13.4218 14Z" fill="#F8D12E"/>
<path id="Shape_10" d="M31.1374 31.0588L31.5907 32.5266H33.0588L31.8709 33.4342L32.3248 34.902L31.1374 33.9949L29.9494 34.902L30.4034 33.4342L29.2157 32.5266H30.6838L31.1374 31.0588Z" fill="#F8D12E"/>
<path id="Shape_11" d="M17.9608 10.1961L18.4141 11.664H19.8824L18.6946 12.5716L19.1486 14.0392L17.9608 13.1316L16.7733 14.0392L17.2269 12.5716L16.0392 11.664H17.5071L17.9608 10.1961Z" fill="#F8D12E"/>
<path id="Shape_12" d="M16.8626 31.0588L17.3162 32.5273H18.7843L17.5967 33.4341L18.0503 34.902L16.8626 33.9954L15.6752 34.902L16.1288 33.4341L14.9412 32.5273H16.4089L16.8626 31.0588Z" fill="#F8D12E"/>
</g>
<path id="GDPR" fill-rule="evenodd" clip-rule="evenodd" d="M51 17.5957C51 20.4198 53.1632 22.1915 55.8205 22.1915C57.503 22.1915 58.7982 21.5121 59.7596 20.4598V16.983H55.4599V18.8879H57.503V19.6339C57.1424 19.9269 56.5148 20.1667 55.8205 20.1667C54.365 20.1667 53.3368 19.0477 53.3368 17.5957C53.3368 16.1438 54.365 15.0248 55.8205 15.0248C56.6617 15.0248 57.3427 15.491 57.7033 16.0772L59.6261 15.0648C58.9718 13.9591 57.77 13 55.8205 13C53.1632 13 51 14.7717 51 17.5957ZM61.1083 22.0316V13.1465H64.8472C67.6513 13.1465 69.6677 14.825 69.6677 17.5824C69.6677 20.3399 67.6513 22.0316 64.8605 22.0316H61.1083ZM63.405 20.0335H64.8472C66.4095 20.0335 67.3175 18.9012 67.3175 17.5824C67.3175 16.2104 66.4896 15.1447 64.8605 15.1447H63.405V20.0335ZM70.816 22.0316V13.1465H75.276C77.2789 13.1465 78.3739 14.492 78.3739 16.1038C78.3739 17.7023 77.2789 19.0211 75.276 19.0211H73.1128V22.0316H70.816ZM76.0371 16.0905C76.0371 15.4777 75.5831 15.0781 74.9688 15.0781H73.1128V17.0762H74.9688C75.5831 17.0762 76.0371 16.6899 76.0371 16.0905ZM84.3694 22.0316L82.8739 19.0211H81.6988V22.0316H79.4021V13.1465H83.862C85.8383 13.1465 86.9599 14.452 86.9599 16.1038C86.9599 17.649 86.0119 18.4749 85.184 18.768L87 22.0316H84.3694ZM84.6231 16.0772C84.6231 15.4644 84.1157 15.0781 83.5148 15.0781H81.6988V17.0762H83.5148C84.1157 17.0762 84.6231 16.6899 84.6231 16.0772Z" fill="#2B3945"/>
<path id="Shape_13" fill-rule="evenodd" clip-rule="evenodd" d="M26.7143 21.1364H27.1429C27.6161 21.1364 28 21.5334 28 22.0227V25.5682C28 26.0575 27.6161 26.4545 27.1429 26.4545H20.8571C20.3839 26.4545 20 26.0575 20 25.5682V22.0227C20 21.5334 20.3839 21.1364 20.8571 21.1364H21.2857V19.8068C21.2857 18.2594 22.5036 17 24 17C25.4964 17 26.7143 18.2594 26.7143 19.8068V21.1364ZM22.7143 19.8068V21.1364H25.2857V19.8068C25.2857 19.0737 24.7089 18.4773 24 18.4773C23.2911 18.4773 22.7143 19.0737 22.7143 19.8068Z" fill="white"/>
<path id="Compliant" d="M55.464 29.104C55.4213 28.9387 55.3627 28.7867 55.288 28.648C55.2133 28.5093 55.1173 28.3893 55 28.288C54.8827 28.1867 54.744 28.1093 54.584 28.056C54.4293 27.9973 54.248 27.968 54.04 27.968C53.736 27.968 53.472 28.0293 53.248 28.152C53.0293 28.2747 52.8507 28.44 52.712 28.648C52.5733 28.8507 52.4693 29.0827 52.4 29.344C52.336 29.6053 52.304 29.872 52.304 30.144C52.304 30.416 52.336 30.6827 52.4 30.944C52.4693 31.2053 52.5733 31.44 52.712 31.648C52.8507 31.8507 53.0293 32.0133 53.248 32.136C53.472 32.2587 53.736 32.32 54.04 32.32C54.264 32.32 54.4613 32.2827 54.632 32.208C54.8027 32.128 54.9493 32.0213 55.072 31.888C55.1947 31.7493 55.2907 31.5893 55.36 31.408C55.4293 31.2267 55.4747 31.032 55.496 30.824H56.472C56.4507 31.1653 56.376 31.4773 56.248 31.76C56.1253 32.0427 55.9573 32.288 55.744 32.496C55.5307 32.6987 55.28 32.856 54.992 32.968C54.704 33.08 54.3867 33.136 54.04 33.136C53.6133 33.136 53.2293 33.0587 52.888 32.904C52.552 32.744 52.2667 32.528 52.032 32.256C51.7973 31.984 51.616 31.6667 51.488 31.304C51.3653 30.9413 51.304 30.5547 51.304 30.144C51.304 29.7387 51.3653 29.3547 51.488 28.992C51.616 28.6293 51.7973 28.312 52.032 28.04C52.2667 27.768 52.552 27.552 52.888 27.392C53.2293 27.232 53.6133 27.152 54.04 27.152C54.36 27.152 54.6613 27.1973 54.944 27.288C55.2267 27.3733 55.4747 27.5013 55.688 27.672C55.9067 27.8373 56.0827 28.04 56.216 28.28C56.3493 28.52 56.432 28.7947 56.464 29.104H55.464ZM60.0134 27.968C59.7094 27.968 59.4454 28.0293 59.2214 28.152C59.0028 28.2747 58.8241 28.44 58.6854 28.648C58.5468 28.8507 58.4428 29.0827 58.3734 29.344C58.3094 29.6053 58.2774 29.872 58.2774 30.144C58.2774 30.416 58.3094 30.6827 58.3734 30.944C58.4428 31.2053 58.5468 31.44 58.6854 31.648C58.8241 31.8507 59.0028 32.0133 59.2214 32.136C59.4454 32.2587 59.7094 32.32 60.0134 32.32C60.3174 32.32 60.5788 32.2587 60.7974 32.136C61.0214 32.0133 61.2028 31.8507 61.3414 31.648C61.4801 31.44 61.5814 31.2053 61.6454 30.944C61.7148 30.6827 61.7494 30.416 61.7494 30.144C61.7494 29.872 61.7148 29.6053 61.6454 29.344C61.5814 29.0827 61.4801 28.8507 61.3414 28.648C61.2028 28.44 61.0214 28.2747 60.7974 28.152C60.5788 28.0293 60.3174 27.968 60.0134 27.968ZM60.0134 27.152C60.4401 27.152 60.8214 27.232 61.1574 27.392C61.4988 27.552 61.7868 27.768 62.0214 28.04C62.2561 28.312 62.4348 28.6293 62.5574 28.992C62.6854 29.3547 62.7494 29.7387 62.7494 30.144C62.7494 30.5547 62.6854 30.9413 62.5574 31.304C62.4348 31.6667 62.2561 31.984 62.0214 32.256C61.7868 32.528 61.4988 32.744 61.1574 32.904C60.8214 33.0587 60.4401 33.136 60.0134 33.136C59.5868 33.136 59.2028 33.0587 58.8614 32.904C58.5254 32.744 58.2401 32.528 58.0054 32.256C57.7708 31.984 57.5894 31.6667 57.4614 31.304C57.3388 30.9413 57.2774 30.5547 57.2774 30.144C57.2774 29.7387 57.3388 29.3547 57.4614 28.992C57.5894 28.6293 57.7708 28.312 58.0054 28.04C58.2401 27.768 58.5254 27.552 58.8614 27.392C59.2028 27.232 59.5868 27.152 60.0134 27.152ZM63.8436 27.288H65.2516L66.8276 31.76H66.8436L68.3796 27.288H69.7716V33H68.8196V28.592H68.8036L67.2196 33H66.3956L64.8116 28.592H64.7956V33H63.8436V27.288ZM71.1689 27.288H73.6889C74.0943 27.288 74.4249 27.3467 74.6809 27.464C74.9369 27.5813 75.1343 27.728 75.2729 27.904C75.4116 28.08 75.5049 28.272 75.5529 28.48C75.6063 28.688 75.6329 28.88 75.6329 29.056C75.6329 29.232 75.6063 29.424 75.5529 29.632C75.5049 29.8347 75.4116 30.024 75.2729 30.2C75.1343 30.376 74.9369 30.5227 74.6809 30.64C74.4249 30.752 74.0943 30.808 73.6889 30.808H72.1689V33H71.1689V27.288ZM72.1689 29.992H73.6329C73.7449 29.992 73.8596 29.976 73.9769 29.944C74.0943 29.912 74.2009 29.8613 74.2969 29.792C74.3983 29.7173 74.4783 29.6213 74.5369 29.504C74.6009 29.3813 74.6329 29.2293 74.6329 29.048C74.6329 28.8613 74.6063 28.7067 74.5529 28.584C74.4996 28.4613 74.4276 28.3653 74.3369 28.296C74.2463 28.2213 74.1423 28.1707 74.0249 28.144C73.9076 28.1173 73.7823 28.104 73.6489 28.104H72.1689V29.992ZM76.7049 27.288H77.7049V32.136H80.6089V33H76.7049V27.288ZM81.4986 27.288H82.4986V33H81.4986V27.288ZM85.4532 27.288H86.5172L88.7172 33H87.6452L87.1092 31.488H84.8292L84.2932 33H83.2612L85.4532 27.288ZM85.1012 30.728H86.8452L85.9892 28.272H85.9652L85.1012 30.728ZM89.4211 27.288H90.4771L93.0851 31.496H93.1011V27.288H94.0531V33H92.9971L90.3971 28.8H90.3731V33H89.4211V27.288ZM94.8906 27.288H99.5146V28.152H97.6986V33H96.6986V28.152H94.8906V27.288Z" fill="#2B3945"/>
</g>
<defs>
<filter id="filter0_d" x="0" y="0" width="114" height="48" filterUnits="userSpaceOnUse" color-interpolation-filters="sRGB">
<feFlood flood-opacity="0" result="BackgroundImageFix"/>
<feColorMatrix in="SourceAlpha" type="matrix" values="0 0 0 0 0 0 0 0 0 0 0 0 0 0 0 0 0 0 127 0" result="hardAlpha"/>
<feOffset dy="2"/>
<feGaussianBlur stdDeviation="2"/>
<feColorMatrix type="matrix" values="0 0 0 0 0.847059 0 0 0 0 0.866667 0 0 0 0 0.890196 0 0 0 1 0"/>
<feBlend mode="normal" in2="BackgroundImageFix" result="effect1_dropShadow"/>
<feBlend mode="normal" in="SourceGraphic" in2="effect1_dropShadow" result="shape"/>
</filter>
</defs>
</svg>
